<?xml version="1.0" encoding="UTF-8"?>
<svg xmlns="http://www.w3.org/2000/svg" xmlns:xlink="http://www.w3.org/1999/xlink" width="41px" height="41px" viewBox="0 0 41 41" version="1.1">
<g id="surface1">
<path style=" stroke:none;fill-rule:nonzero;fill:rgb(40%,45.490196%,27.843137%);fill-opacity:1;" d="M 13.671875 13.929688 L 16.015625 12.171875 L 20.5 9.609375 L 24.984375 12.171875 L 27.328125 13.929688 C 28.097656 14.507812 28.628906 15.34375 28.820312 16.28125 C 29.015625 17.222656 28.859375 18.199219 28.386719 19.035156 L 27.546875 20.5 L 13.453125 20.5 L 12.613281 19.035156 C 12.140625 18.199219 11.984375 17.222656 12.179688 16.28125 C 12.371094 15.34375 12.902344 14.507812 13.671875 13.929688 Z M 13.671875 13.929688 "/>
<path style=" stroke:none;fill-rule:nonzero;fill:rgb(99.215686%,78.823529%,65.098039%);fill-opacity:1;" d="M 20.5 21.140625 C 23.683594 21.140625 26.265625 18.558594 26.265625 15.375 C 26.265625 12.191406 23.683594 9.609375 20.5 9.609375 C 17.316406 9.609375 14.734375 12.191406 14.734375 15.375 C 14.734375 18.558594 17.316406 21.140625 20.5 21.140625 Z M 20.5 21.140625 "/>
<path style=" stroke:none;fill-rule:nonzero;fill:rgb(83.921569%,63.529412%,49.803922%);fill-opacity:1;" d="M 26.21875 14.628906 L 20.5 10.183594 L 14.78125 14.628906 C 14.964844 13.238281 15.644531 11.964844 16.695312 11.042969 C 17.75 10.117188 19.101562 9.609375 20.5 9.609375 C 21.898438 9.609375 23.25 10.117188 24.304688 11.042969 C 25.355469 11.964844 26.035156 13.238281 26.21875 14.628906 Z M 26.21875 14.628906 "/>
<path style=" stroke:none;fill-rule:nonzero;fill:rgb(61.176471%,69.803922%,42.745098%);fill-opacity:1;" d="M 12.171875 20.5 L 7.046875 23.703125 L 4.066406 30.164062 C 3.792969 30.753906 3.640625 31.394531 3.617188 32.046875 C 3.589844 32.699219 3.695312 33.347656 3.925781 33.957031 C 4.277344 34.898438 4.910156 35.707031 5.734375 36.277344 C 6.558594 36.851562 7.539062 37.15625 8.539062 37.15625 L 32.460938 37.15625 C 33.464844 37.15625 34.441406 36.851562 35.265625 36.277344 C 36.089844 35.707031 36.722656 34.898438 37.074219 33.957031 C 37.304688 33.347656 37.410156 32.699219 37.386719 32.046875 C 37.359375 31.394531 37.207031 30.753906 36.933594 30.164062 L 33.953125 23.703125 L 28.828125 20.5 Z M 12.171875 20.5 "/>
<path style=" stroke:none;fill-rule:nonzero;fill:rgb(91.764706%,91.372549%,89.411765%);fill-opacity:1;" d="M 12.171875 20.5 L 28.828125 20.5 C 29.167969 20.5 29.492188 20.636719 29.734375 20.875 C 29.972656 21.117188 30.109375 21.441406 30.109375 21.78125 L 30.109375 34.59375 L 10.890625 34.59375 L 10.890625 21.78125 C 10.890625 21.441406 11.027344 21.117188 11.265625 20.875 C 11.507812 20.636719 11.832031 20.5 12.171875 20.5 Z M 12.171875 20.5 "/>
<path style=" stroke:none;fill-rule:nonzero;fill:rgb(57.647059%,38.039216%,3.137255%);fill-opacity:1;" d="M 16.65625 30.75 C 16.523438 30.75 16.394531 30.710938 16.289062 30.632812 C 16.179688 30.558594 16.097656 30.453125 16.054688 30.328125 C 16.007812 30.203125 16.003906 30.070312 16.039062 29.941406 C 16.070312 29.816406 16.144531 29.703125 16.246094 29.617188 L 23.933594 23.210938 C 24.0625 23.101562 24.230469 23.050781 24.402344 23.066406 C 24.570312 23.082031 24.726562 23.164062 24.835938 23.292969 C 24.945312 23.421875 24.996094 23.59375 24.980469 23.761719 C 24.964844 23.929688 24.882812 24.085938 24.753906 24.195312 L 17.066406 30.601562 C 16.949219 30.699219 16.804688 30.75 16.65625 30.75 Z M 16.65625 30.75 "/>
<path style=" stroke:none;fill-rule:nonzero;fill:rgb(57.647059%,38.039216%,3.137255%);fill-opacity:1;" d="M 24.34375 30.75 C 24.195312 30.75 24.046875 30.699219 23.933594 30.601562 L 16.246094 24.195312 C 16.117188 24.085938 16.035156 23.929688 16.019531 23.761719 C 16.003906 23.59375 16.054688 23.421875 16.164062 23.292969 C 16.273438 23.164062 16.429688 23.082031 16.597656 23.066406 C 16.769531 23.050781 16.9375 23.101562 17.066406 23.210938 L 24.753906 29.617188 C 24.855469 29.703125 24.929688 29.816406 24.960938 29.941406 C 24.996094 30.070312 24.992188 30.203125 24.945312 30.328125 C 24.902344 30.453125 24.820312 30.558594 24.710938 30.632812 C 24.605469 30.710938 24.476562 30.75 24.34375 30.75 Z M 24.34375 30.75 "/>
<path style=" stroke:none;fill-rule:nonzero;fill:rgb(83.921569%,63.529412%,49.803922%);fill-opacity:1;" d="M 26.21875 14.628906 L 20.5 10.183594 L 14.78125 14.628906 C 14.964844 13.238281 15.644531 11.964844 16.695312 11.042969 C 17.75 10.117188 19.101562 9.609375 20.5 9.609375 C 21.898438 9.609375 23.25 10.117188 24.304688 11.042969 C 25.355469 11.964844 26.035156 13.238281 26.21875 14.628906 Z M 26.21875 14.628906 "/>
<path style=" stroke:none;fill-rule:nonzero;fill:rgb(47.843137%,28.627451%,13.333333%);fill-opacity:1;" d="M 18.578125 15.375 C 18.476562 15.375 18.378906 15.351562 18.292969 15.308594 L 17.011719 14.667969 C 16.933594 14.628906 16.867188 14.578125 16.8125 14.515625 C 16.753906 14.449219 16.710938 14.375 16.683594 14.296875 C 16.660156 14.214844 16.648438 14.132812 16.652344 14.046875 C 16.660156 13.960938 16.679688 13.878906 16.71875 13.804688 C 16.757812 13.730469 16.808594 13.660156 16.875 13.605469 C 16.9375 13.550781 17.011719 13.507812 17.09375 13.484375 C 17.171875 13.457031 17.257812 13.445312 17.339844 13.453125 C 17.425781 13.460938 17.507812 13.480469 17.582031 13.519531 L 18.863281 14.160156 C 18.992188 14.226562 19.097656 14.332031 19.160156 14.460938 C 19.21875 14.59375 19.234375 14.742188 19.203125 14.882812 C 19.167969 15.023438 19.089844 15.148438 18.976562 15.238281 C 18.863281 15.328125 18.722656 15.375 18.578125 15.375 Z M 18.578125 15.375 "/>
<path style=" stroke:none;fill-rule:nonzero;fill:rgb(47.843137%,28.627451%,13.333333%);fill-opacity:1;" d="M 22.421875 15.375 C 22.277344 15.375 22.136719 15.328125 22.023438 15.238281 C 21.910156 15.148438 21.832031 15.023438 21.796875 14.882812 C 21.765625 14.742188 21.78125 14.59375 21.839844 14.460938 C 21.902344 14.332031 22.007812 14.226562 22.136719 14.160156 L 23.417969 13.519531 C 23.492188 13.480469 23.574219 13.460938 23.660156 13.453125 C 23.742188 13.445312 23.828125 13.457031 23.90625 13.484375 C 23.988281 13.507812 24.0625 13.550781 24.125 13.605469 C 24.191406 13.660156 24.242188 13.730469 24.28125 13.804688 C 24.320312 13.878906 24.339844 13.960938 24.347656 14.046875 C 24.351562 14.132812 24.339844 14.214844 24.316406 14.296875 C 24.289062 14.375 24.246094 14.449219 24.1875 14.515625 C 24.132812 14.578125 24.066406 14.628906 23.988281 14.667969 L 22.707031 15.308594 C 22.621094 15.351562 22.523438 15.375 22.421875 15.375 Z M 22.421875 15.375 "/>
<path style=" stroke:none;fill-rule:nonzero;fill:rgb(63.921569%,38.039216%,17.647059%);fill-opacity:1;" d="M 19.859375 18.578125 C 19.6875 18.578125 19.527344 18.511719 19.40625 18.390625 C 19.285156 18.269531 19.21875 18.109375 19.21875 17.9375 C 19.21875 17.765625 19.285156 17.605469 19.40625 17.484375 C 19.527344 17.363281 19.6875 17.296875 19.859375 17.296875 C 20.601562 17.296875 21.335938 17.121094 22 16.792969 L 22.136719 16.722656 C 22.210938 16.6875 22.292969 16.664062 22.375 16.65625 C 22.460938 16.652344 22.542969 16.664062 22.625 16.6875 C 22.703125 16.714844 22.777344 16.757812 22.839844 16.8125 C 22.90625 16.867188 22.957031 16.933594 22.996094 17.011719 C 23.03125 17.085938 23.054688 17.167969 23.0625 17.25 C 23.066406 17.335938 23.054688 17.417969 23.03125 17.5 C 23.003906 17.578125 22.960938 17.652344 22.90625 17.714844 C 22.851562 17.78125 22.785156 17.832031 22.707031 17.871094 L 22.574219 17.9375 C 21.730469 18.359375 20.800781 18.578125 19.859375 18.578125 Z M 19.859375 18.578125 "/>
<path style=" stroke:none;fill-rule:nonzero;fill:rgb(97.647059%,64.313725%,5.490196%);fill-opacity:1;" d="M 17.296875 26.539062 C 17.296875 26.941406 17.410156 27.335938 17.621094 27.675781 C 17.832031 28.019531 18.132812 28.292969 18.492188 28.472656 L 18.578125 28.515625 L 18.578125 30.4375 C 19.824219 30.855469 21.175781 30.855469 22.421875 30.4375 L 22.421875 28.515625 L 22.507812 28.472656 C 22.867188 28.292969 23.167969 28.019531 23.378906 27.675781 C 23.589844 27.335938 23.703125 26.941406 23.703125 26.539062 C 23.703125 26.164062 23.605469 25.796875 23.421875 25.472656 C 23.238281 25.148438 22.972656 24.875 22.652344 24.683594 C 22.003906 24.292969 21.257812 24.085938 20.5 24.085938 C 19.742188 24.085938 18.996094 24.292969 18.347656 24.683594 C 18.027344 24.875 17.761719 25.148438 17.578125 25.472656 C 17.394531 25.796875 17.296875 26.164062 17.296875 26.539062 Z M 17.296875 26.539062 "/>
<path style=" stroke:none;fill-rule:nonzero;fill:rgb(57.647059%,38.039216%,3.137255%);fill-opacity:1;" d="M 19.21875 27.234375 C 19.574219 27.234375 19.859375 26.949219 19.859375 26.59375 C 19.859375 26.242188 19.574219 25.953125 19.21875 25.953125 C 18.863281 25.953125 18.578125 26.242188 18.578125 26.59375 C 18.578125 26.949219 18.863281 27.234375 19.21875 27.234375 Z M 19.21875 27.234375 "/>
<path style=" stroke:none;fill-rule:nonzero;fill:rgb(57.647059%,38.039216%,3.137255%);fill-opacity:1;" d="M 21.78125 27.234375 C 22.136719 27.234375 22.421875 26.949219 22.421875 26.59375 C 22.421875 26.242188 22.136719 25.953125 21.78125 25.953125 C 21.425781 25.953125 21.140625 26.242188 21.140625 26.59375 C 21.140625 26.949219 21.425781 27.234375 21.78125 27.234375 Z M 21.78125 27.234375 "/>
<path style=" stroke:none;fill-rule:nonzero;fill:rgb(36.862745%,74.509804%,96.862745%);fill-opacity:1;" d="M 32.671875 9.035156 C 32.164062 9.035156 31.675781 8.832031 31.3125 8.472656 C 30.953125 8.113281 30.75 7.625 30.75 7.113281 L 30.75 6.472656 C 30.75 5.964844 30.953125 5.476562 31.3125 5.113281 C 31.671875 4.753906 32.164062 4.550781 32.671875 4.550781 C 33.179688 4.550781 33.671875 4.753906 34.03125 5.113281 C 34.390625 5.476562 34.59375 5.964844 34.59375 6.472656 L 34.59375 7.113281 C 34.59375 7.625 34.390625 8.113281 34.03125 8.472656 C 33.667969 8.832031 33.179688 9.035156 32.671875 9.035156 Z M 32.671875 5.832031 C 32.503906 5.832031 32.339844 5.902344 32.21875 6.019531 C 32.097656 6.140625 32.03125 6.304688 32.03125 6.472656 L 32.03125 7.113281 C 32.03125 7.285156 32.097656 7.445312 32.21875 7.566406 C 32.339844 7.6875 32.5 7.753906 32.671875 7.753906 C 32.84375 7.753906 33.003906 7.6875 33.125 7.566406 C 33.246094 7.445312 33.3125 7.285156 33.3125 7.113281 L 33.3125 6.472656 C 33.3125 6.304688 33.246094 6.140625 33.125 6.019531 C 33.003906 5.902344 32.839844 5.832031 32.671875 5.832031 Z M 32.671875 5.832031 "/>
<path style=" stroke:none;fill-rule:nonzero;fill:rgb(57.254902%,81.960784%,96.862745%);fill-opacity:1;" d="M 37.15625 9.035156 C 36.984375 9.035156 36.824219 8.96875 36.703125 8.847656 C 36.582031 8.726562 36.515625 8.566406 36.515625 8.394531 L 36.515625 6.472656 C 36.390625 6.472656 36.265625 6.4375 36.160156 6.367188 C 36.054688 6.296875 35.972656 6.195312 35.921875 6.078125 C 35.875 5.960938 35.863281 5.832031 35.886719 5.707031 C 35.910156 5.582031 35.972656 5.46875 36.0625 5.378906 L 36.703125 4.738281 C 36.792969 4.648438 36.90625 4.589844 37.03125 4.5625 C 37.15625 4.539062 37.285156 4.550781 37.402344 4.601562 C 37.519531 4.648438 37.617188 4.730469 37.6875 4.835938 C 37.757812 4.941406 37.796875 5.066406 37.796875 5.191406 L 37.796875 8.394531 C 37.796875 8.566406 37.730469 8.726562 37.609375 8.847656 C 37.488281 8.96875 37.328125 9.035156 37.15625 9.035156 Z M 37.15625 9.035156 "/>
<path style=" stroke:none;fill-rule:nonzero;fill:rgb(36.862745%,74.509804%,96.862745%);fill-opacity:1;" d="M 32.671875 20.566406 C 32.164062 20.566406 31.675781 20.363281 31.3125 20.003906 C 30.953125 19.644531 30.75 19.15625 30.75 18.644531 L 30.75 18.003906 C 30.75 17.496094 30.953125 17.007812 31.3125 16.644531 C 31.671875 16.285156 32.164062 16.082031 32.671875 16.082031 C 33.179688 16.082031 33.671875 16.285156 34.03125 16.644531 C 34.390625 17.007812 34.59375 17.496094 34.59375 18.003906 L 34.59375 18.644531 C 34.59375 19.15625 34.390625 19.644531 34.03125 20.003906 C 33.667969 20.363281 33.179688 20.566406 32.671875 20.566406 Z M 32.671875 17.363281 C 32.503906 17.363281 32.339844 17.433594 32.21875 17.550781 C 32.097656 17.671875 32.03125 17.835938 32.03125 18.003906 L 32.03125 18.644531 C 32.03125 18.816406 32.097656 18.976562 32.21875 19.097656 C 32.339844 19.21875 32.5 19.285156 32.671875 19.285156 C 32.84375 19.285156 33.003906 19.21875 33.125 19.097656 C 33.246094 18.976562 33.3125 18.816406 33.3125 18.644531 L 33.3125 18.003906 C 33.3125 17.835938 33.246094 17.671875 33.125 17.550781 C 33.003906 17.433594 32.839844 17.363281 32.671875 17.363281 Z M 32.671875 17.363281 "/>
<path style=" stroke:none;fill-rule:nonzero;fill:rgb(57.254902%,81.960784%,96.862745%);fill-opacity:1;" d="M 37.15625 20.566406 C 36.984375 20.566406 36.824219 20.5 36.703125 20.378906 C 36.582031 20.257812 36.515625 20.097656 36.515625 19.925781 L 36.515625 18.003906 C 36.390625 18.003906 36.265625 17.96875 36.160156 17.898438 C 36.054688 17.828125 35.972656 17.726562 35.921875 17.609375 C 35.875 17.492188 35.863281 17.363281 35.886719 17.238281 C 35.910156 17.113281 35.972656 17 36.0625 16.910156 L 36.703125 16.269531 C 36.792969 16.179688 36.90625 16.121094 37.03125 16.09375 C 37.15625 16.070312 37.285156 16.082031 37.402344 16.132812 C 37.519531 16.179688 37.617188 16.261719 37.6875 16.367188 C 37.757812 16.472656 37.796875 16.597656 37.796875 16.722656 L 37.796875 19.925781 C 37.796875 20.097656 37.730469 20.257812 37.609375 20.378906 C 37.488281 20.5 37.328125 20.566406 37.15625 20.566406 Z M 37.15625 20.566406 "/>
<path style=" stroke:none;fill-rule:nonzero;fill:rgb(36.862745%,74.509804%,96.862745%);fill-opacity:1;" d="M 37.15625 14.800781 C 36.648438 14.800781 36.160156 14.597656 35.796875 14.238281 C 35.4375 13.878906 35.234375 13.390625 35.234375 12.878906 L 35.234375 12.238281 C 35.234375 11.730469 35.4375 11.242188 35.796875 10.878906 C 36.15625 10.519531 36.648438 10.316406 37.15625 10.316406 C 37.664062 10.316406 38.15625 10.519531 38.515625 10.878906 C 38.875 11.242188 39.078125 11.730469 39.078125 12.238281 L 39.078125 12.878906 C 39.078125 13.390625 38.875 13.878906 38.515625 14.238281 C 38.152344 14.597656 37.664062 14.800781 37.15625 14.800781 Z M 37.15625 11.597656 C 36.988281 11.597656 36.824219 11.667969 36.703125 11.785156 C 36.582031 11.90625 36.515625 12.070312 36.515625 12.238281 L 36.515625 12.878906 C 36.515625 13.050781 36.582031 13.210938 36.703125 13.332031 C 36.824219 13.453125 36.984375 13.519531 37.15625 13.519531 C 37.328125 13.519531 37.488281 13.453125 37.609375 13.332031 C 37.730469 13.210938 37.796875 13.050781 37.796875 12.878906 L 37.796875 12.238281 C 37.796875 12.070312 37.730469 11.90625 37.609375 11.785156 C 37.488281 11.667969 37.324219 11.597656 37.15625 11.597656 Z M 37.15625 11.597656 "/>
<path style=" stroke:none;fill-rule:nonzero;fill:rgb(57.254902%,81.960784%,96.862745%);fill-opacity:1;" d="M 32.671875 14.800781 C 32.5 14.800781 32.339844 14.734375 32.21875 14.613281 C 32.097656 14.492188 32.03125 14.332031 32.03125 14.160156 L 32.03125 12.238281 C 31.90625 12.238281 31.78125 12.203125 31.675781 12.132812 C 31.570312 12.0625 31.488281 11.960938 31.4375 11.84375 C 31.390625 11.726562 31.378906 11.597656 31.402344 11.472656 C 31.425781 11.347656 31.488281 11.234375 31.578125 11.144531 L 32.21875 10.503906 C 32.308594 10.414062 32.421875 10.355469 32.546875 10.328125 C 32.671875 10.304688 32.800781 10.316406 32.917969 10.367188 C 33.035156 10.414062 33.132812 10.496094 33.203125 10.601562 C 33.273438 10.707031 33.3125 10.832031 33.3125 10.957031 L 33.3125 14.160156 C 33.3125 14.332031 33.246094 14.492188 33.125 14.613281 C 33.003906 14.734375 32.84375 14.800781 32.671875 14.800781 Z M 32.671875 14.800781 "/>
<path style=" stroke:none;fill-rule:nonzero;fill:rgb(36.862745%,74.509804%,96.862745%);fill-opacity:1;" d="M 3.84375 9.035156 C 3.335938 9.035156 2.847656 8.832031 2.484375 8.472656 C 2.125 8.113281 1.921875 7.625 1.921875 7.113281 L 1.921875 6.472656 C 1.921875 5.964844 2.125 5.476562 2.484375 5.113281 C 2.84375 4.753906 3.335938 4.550781 3.84375 4.550781 C 4.351562 4.550781 4.84375 4.753906 5.203125 5.113281 C 5.5625 5.476562 5.765625 5.964844 5.765625 6.472656 L 5.765625 7.113281 C 5.765625 7.625 5.5625 8.113281 5.203125 8.472656 C 4.839844 8.832031 4.351562 9.035156 3.84375 9.035156 Z M 3.84375 5.832031 C 3.675781 5.832031 3.511719 5.902344 3.390625 6.019531 C 3.269531 6.140625 3.203125 6.304688 3.203125 6.472656 L 3.203125 7.113281 C 3.203125 7.285156 3.269531 7.445312 3.390625 7.566406 C 3.511719 7.6875 3.675781 7.753906 3.84375 7.753906 C 4.011719 7.753906 4.175781 7.6875 4.296875 7.566406 C 4.417969 7.445312 4.484375 7.285156 4.484375 7.113281 L 4.484375 6.472656 C 4.484375 6.304688 4.417969 6.140625 4.296875 6.019531 C 4.175781 5.902344 4.011719 5.832031 3.84375 5.832031 Z M 3.84375 5.832031 "/>
<path style=" stroke:none;fill-rule:nonzero;fill:rgb(57.254902%,81.960784%,96.862745%);fill-opacity:1;" d="M 8.328125 9.035156 C 8.15625 9.035156 7.996094 8.96875 7.875 8.847656 C 7.753906 8.726562 7.6875 8.566406 7.6875 8.394531 L 7.6875 6.472656 C 7.5625 6.472656 7.4375 6.4375 7.332031 6.367188 C 7.226562 6.296875 7.144531 6.195312 7.09375 6.078125 C 7.046875 5.960938 7.035156 5.832031 7.058594 5.707031 C 7.082031 5.582031 7.144531 5.46875 7.234375 5.378906 L 7.875 4.738281 C 7.964844 4.648438 8.078125 4.589844 8.203125 4.5625 C 8.328125 4.539062 8.457031 4.550781 8.574219 4.601562 C 8.691406 4.648438 8.789062 4.730469 8.859375 4.835938 C 8.929688 4.941406 8.96875 5.066406 8.96875 5.191406 L 8.96875 8.394531 C 8.96875 8.566406 8.902344 8.726562 8.78125 8.847656 C 8.660156 8.96875 8.5 9.035156 8.328125 9.035156 Z M 8.328125 9.035156 "/>
<path style=" stroke:none;fill-rule:nonzero;fill:rgb(36.862745%,74.509804%,96.862745%);fill-opacity:1;" d="M 8.328125 14.800781 C 7.820312 14.800781 7.332031 14.597656 6.96875 14.238281 C 6.609375 13.878906 6.40625 13.390625 6.40625 12.878906 L 6.40625 12.238281 C 6.40625 11.730469 6.609375 11.242188 6.96875 10.878906 C 7.328125 10.519531 7.820312 10.316406 8.328125 10.316406 C 8.835938 10.316406 9.328125 10.519531 9.6875 10.878906 C 10.046875 11.242188 10.25 11.730469 10.25 12.238281 L 10.25 12.878906 C 10.25 13.390625 10.046875 13.878906 9.6875 14.238281 C 9.324219 14.597656 8.835938 14.800781 8.328125 14.800781 Z M 8.328125 11.597656 C 8.160156 11.597656 7.996094 11.667969 7.875 11.785156 C 7.753906 11.90625 7.6875 12.070312 7.6875 12.238281 L 7.6875 12.878906 C 7.6875 13.050781 7.753906 13.210938 7.875 13.332031 C 7.996094 13.453125 8.15625 13.519531 8.328125 13.519531 C 8.5 13.519531 8.660156 13.453125 8.78125 13.332031 C 8.902344 13.210938 8.96875 13.050781 8.96875 12.878906 L 8.96875 12.238281 C 8.96875 12.070312 8.902344 11.90625 8.78125 11.785156 C 8.660156 11.667969 8.496094 11.597656 8.328125 11.597656 Z M 8.328125 11.597656 "/>
<path style=" stroke:none;fill-rule:nonzero;fill:rgb(36.862745%,74.509804%,96.862745%);fill-opacity:1;" d="M 8.328125 20.566406 C 7.820312 20.566406 7.332031 20.363281 6.96875 20.003906 C 6.609375 19.644531 6.40625 19.15625 6.40625 18.644531 L 6.40625 18.003906 C 6.40625 17.496094 6.609375 17.007812 6.96875 16.644531 C 7.328125 16.285156 7.820312 16.082031 8.328125 16.082031 C 8.835938 16.082031 9.328125 16.285156 9.6875 16.644531 C 10.046875 17.007812 10.25 17.496094 10.25 18.003906 L 10.25 18.644531 C 10.25 19.15625 10.046875 19.644531 9.6875 20.003906 C 9.324219 20.363281 8.835938 20.566406 8.328125 20.566406 Z M 8.328125 17.363281 C 8.160156 17.363281 7.996094 17.433594 7.875 17.550781 C 7.753906 17.671875 7.6875 17.835938 7.6875 18.003906 L 7.6875 18.644531 C 7.6875 18.816406 7.753906 18.976562 7.875 19.097656 C 7.996094 19.21875 8.15625 19.285156 8.328125 19.285156 C 8.5 19.285156 8.660156 19.21875 8.78125 19.097656 C 8.902344 18.976562 8.96875 18.816406 8.96875 18.644531 L 8.96875 18.003906 C 8.96875 17.835938 8.902344 17.671875 8.78125 17.550781 C 8.660156 17.433594 8.496094 17.363281 8.328125 17.363281 Z M 8.328125 17.363281 "/>
<path style=" stroke:none;fill-rule:nonzero;fill:rgb(57.254902%,81.960784%,96.862745%);fill-opacity:1;" d="M 3.84375 14.800781 C 3.675781 14.800781 3.511719 14.734375 3.390625 14.613281 C 3.269531 14.492188 3.203125 14.332031 3.203125 14.160156 L 3.203125 12.238281 C 3.078125 12.238281 2.953125 12.203125 2.847656 12.132812 C 2.742188 12.0625 2.660156 11.960938 2.609375 11.84375 C 2.5625 11.726562 2.550781 11.597656 2.574219 11.472656 C 2.597656 11.347656 2.660156 11.234375 2.75 11.144531 L 3.390625 10.503906 C 3.480469 10.414062 3.59375 10.355469 3.71875 10.328125 C 3.84375 10.304688 3.972656 10.316406 4.089844 10.367188 C 4.207031 10.414062 4.304688 10.496094 4.375 10.601562 C 4.445312 10.707031 4.484375 10.832031 4.484375 10.957031 L 4.484375 14.160156 C 4.484375 14.332031 4.417969 14.492188 4.296875 14.613281 C 4.175781 14.734375 4.011719 14.800781 3.84375 14.800781 Z M 3.84375 14.800781 "/>
<path style=" stroke:none;fill-rule:nonzero;fill:rgb(57.254902%,81.960784%,96.862745%);fill-opacity:1;" d="M 3.84375 20.566406 C 3.675781 20.566406 3.511719 20.5 3.390625 20.378906 C 3.269531 20.257812 3.203125 20.097656 3.203125 19.925781 L 3.203125 18.003906 C 3.078125 18.003906 2.953125 17.96875 2.847656 17.898438 C 2.742188 17.828125 2.660156 17.726562 2.609375 17.609375 C 2.5625 17.492188 2.550781 17.363281 2.574219 17.238281 C 2.597656 17.113281 2.660156 17 2.75 16.910156 L 3.390625 16.269531 C 3.480469 16.179688 3.59375 16.121094 3.71875 16.09375 C 3.84375 16.070312 3.972656 16.082031 4.089844 16.132812 C 4.207031 16.179688 4.304688 16.261719 4.375 16.367188 C 4.445312 16.472656 4.484375 16.597656 4.484375 16.722656 L 4.484375 19.925781 C 4.484375 20.097656 4.417969 20.257812 4.296875 20.378906 C 4.175781 20.5 4.011719 20.566406 3.84375 20.566406 Z M 3.84375 20.566406 "/>
<path style=" stroke:none;fill-rule:nonzero;fill:rgb(68.235294%,67.843137%,66.666667%);fill-opacity:1;" d="M 30.109375 33.3125 L 10.8125 33.3125 L 10.8125 34.914062 L 30.109375 34.914062 Z M 30.109375 33.3125 "/>
<path style=" stroke:none;fill-rule:nonzero;fill:rgb(91.764706%,91.372549%,89.411765%);fill-opacity:1;" d="M 8.96875 34.59375 L 32.03125 34.59375 L 32.03125 35.554688 C 32.03125 35.980469 31.863281 36.386719 31.5625 36.6875 C 31.261719 36.988281 30.855469 37.15625 30.429688 37.15625 L 10.570312 37.15625 C 10.144531 37.15625 9.738281 36.988281 9.4375 36.6875 C 9.136719 36.386719 8.96875 35.980469 8.96875 35.554688 Z M 8.96875 34.59375 "/>
<path style=" stroke:none;fill-rule:nonzero;fill:rgb(61.176471%,69.803922%,42.745098%);fill-opacity:1;" d="M 28.828125 16.082031 L 28.828125 12.238281 C 28.828125 10.136719 28.03125 8.113281 26.601562 6.570312 C 25.824219 5.734375 24.878906 5.0625 23.828125 4.605469 C 22.777344 4.148438 21.644531 3.910156 20.5 3.910156 C 19.355469 3.910156 18.222656 4.148438 17.171875 4.605469 C 16.121094 5.0625 15.175781 5.734375 14.398438 6.570312 C 12.96875 8.113281 12.171875 10.136719 12.171875 12.238281 L 12.171875 16.082031 L 20.5 9.609375 Z M 28.828125 16.082031 "/>
</g>
</svg>
