<?xml version="1.0" encoding="UTF-8" standalone="no"?> <svg width="512" height="512" viewBox="0 0 512 512" fill="none" xmlns="http://www.w3.org/2000/svg">
<path d="M170.721 173.959L200 152L256 120L312 152L341.279 173.959C350.865 181.149 357.496 191.592 359.924 203.327C362.353 215.061 360.412 227.279 354.467 237.683L344 256H168L157.533 237.683C151.588 227.279 149.647 215.061 152.076 203.327C154.504 191.592 161.134 181.149 170.721 173.959V173.959Z" fill="#667447"/>
<path d="M256 264C295.765 264 328 231.765 328 192C328 152.235 295.765 120 256 120C216.235 120 184 152.235 184 192C184 231.765 216.235 264 256 264Z" fill="#FDC9A6"/>
<path d="M327.4 182.66L256 127.16L184.6 182.66C186.87 165.33 195.366 149.417 208.503 137.888C221.64 126.36 238.522 120.003 256 120.003C273.478 120.003 290.36 126.36 303.497 137.888C316.634 149.417 325.13 165.33 327.4 182.66Z" fill="#D6A27F"/>
<path d="M152 256L87.9998 296L50.7698 376.664C47.3583 384.057 45.4474 392.053 45.1477 400.189C44.848 408.325 46.1655 416.44 49.0238 424.064V424.064C53.4228 435.795 61.2972 445.904 71.5947 453.04C81.8922 460.176 94.1223 464 106.651 464H405.351C417.879 464 430.109 460.177 440.407 453.04C450.704 445.904 458.579 435.796 462.978 424.065V424.065C465.836 416.441 467.154 408.326 466.854 400.19C466.554 392.054 464.643 384.058 461.232 376.665L424 296L360 256H152Z" fill="#9CB26D"/>
<path d="M152 256H360C364.243 256 368.313 257.686 371.314 260.686C374.314 263.687 376 267.757 376 272V432H136V272C136 267.757 137.686 263.687 140.686 260.686C143.687 257.686 147.757 256 152 256V256Z" fill="#EAE9E4"/>
<path d="M208 384C206.355 384.001 204.751 383.495 203.404 382.551C202.057 381.607 201.034 380.272 200.474 378.725C199.913 377.179 199.843 375.498 200.273 373.911C200.702 372.323 201.611 370.907 202.874 369.854L298.874 289.854C300.504 288.495 302.607 287.84 304.72 288.032C306.833 288.224 308.783 289.248 310.142 290.878C311.5 292.508 312.156 294.611 311.964 296.724C311.772 298.837 310.748 300.787 309.118 302.146L213.118 382.146C211.682 383.345 209.871 384.002 208 384Z" fill="#936108"/>
<path d="M304 384C302.129 384.002 300.317 383.346 298.882 382.146L202.882 302.146C201.252 300.787 200.228 298.837 200.036 296.724C199.844 294.611 200.5 292.508 201.858 290.878C203.216 289.248 205.167 288.224 207.28 288.032C209.393 287.84 211.496 288.495 213.126 289.854L309.126 369.854C310.389 370.907 311.298 372.323 311.727 373.911C312.157 375.498 312.086 377.179 311.526 378.725C310.966 380.272 309.943 381.607 308.596 382.551C307.249 383.495 305.644 384.001 304 384V384Z" fill="#936108"/>
<path d="M327.4 182.66L256 127.16L184.6 182.66C186.87 165.33 195.366 149.417 208.503 137.888C221.64 126.36 238.522 120.003 256 120.003C273.478 120.003 290.36 126.36 303.497 137.888C316.634 149.417 325.13 165.33 327.4 182.66Z" fill="#D6A27F"/>
<path d="M231.994 192C230.754 191.999 229.531 191.709 228.422 191.153L212.422 183.153C211.474 182.688 210.628 182.04 209.931 181.247C209.235 180.453 208.702 179.529 208.365 178.529C208.027 177.529 207.891 176.471 207.963 175.418C208.036 174.365 208.317 173.336 208.789 172.392C209.261 171.448 209.916 170.606 210.715 169.916C211.514 169.226 212.442 168.701 213.445 168.371C214.447 168.041 215.506 167.913 216.559 167.994C217.611 168.075 218.638 168.363 219.578 168.843L235.578 176.843C237.191 177.649 238.485 178.976 239.249 180.609C240.014 182.242 240.204 184.086 239.789 185.841C239.374 187.596 238.378 189.159 236.963 190.277C235.549 191.395 233.797 192.002 231.994 192V192Z" fill="#7A4922"/>
<path d="M280.006 192C278.203 192.002 276.452 191.395 275.037 190.277C273.622 189.159 272.626 187.596 272.211 185.841C271.796 184.086 271.986 182.242 272.751 180.609C273.515 178.976 274.809 177.649 276.422 176.843L292.422 168.843C293.363 168.363 294.389 168.075 295.442 167.994C296.494 167.913 297.553 168.041 298.556 168.371C299.559 168.701 300.486 169.226 301.285 169.916C302.084 170.606 302.739 171.448 303.211 172.392C303.683 173.336 303.964 174.365 304.037 175.418C304.11 176.471 303.973 177.529 303.636 178.529C303.298 179.529 302.765 180.453 302.069 181.247C301.373 182.04 300.526 182.688 299.578 183.153L283.578 191.153C282.469 191.709 281.246 191.999 280.006 192V192Z" fill="#7A4922"/>
<path d="M248 232C245.878 232 243.843 231.157 242.343 229.657C240.843 228.157 240 226.122 240 224C240 221.878 240.843 219.843 242.343 218.343C243.843 216.843 245.878 216 248 216C257.279 215.988 266.429 213.828 274.734 209.689L276.421 208.845C277.361 208.375 278.384 208.095 279.432 208.02C280.479 207.945 281.532 208.078 282.529 208.41C283.525 208.742 284.447 209.267 285.241 209.955C286.035 210.644 286.685 211.481 287.155 212.421C287.625 213.361 287.905 214.384 287.98 215.431C288.055 216.479 287.922 217.532 287.59 218.529C287.258 219.525 286.733 220.447 286.045 221.241C285.356 222.034 284.519 222.685 283.579 223.155L281.89 224C271.362 229.247 259.763 231.985 248 232Z" fill="#A3612D"/>
<path d="M216 331.405C216 336.423 217.397 341.342 220.036 345.611C222.674 349.88 226.449 353.33 230.937 355.574L232 356.105V380.105C247.579 385.298 264.421 385.298 280 380.105V380.105V356.105L281.063 355.574C285.551 353.33 289.326 349.88 291.964 345.611C294.603 341.342 296 336.423 296 331.405V331.405C296 326.739 294.792 322.152 292.493 318.091C290.194 314.031 286.882 310.635 282.881 308.234V308.234C274.761 303.362 265.47 300.788 256 300.788C246.53 300.788 237.239 303.362 229.119 308.234V308.234C225.118 310.635 221.806 314.031 219.507 318.091C217.208 322.152 216 326.739 216 331.405V331.405Z" fill="#F9A40E"/>
<path d="M240 340.105C244.418 340.105 248 336.523 248 332.105C248 327.687 244.418 324.105 240 324.105C235.582 324.105 232 327.687 232 332.105C232 336.523 235.582 340.105 240 340.105Z" fill="#936108"/>
<path d="M272 340.105C276.418 340.105 280 336.523 280 332.105C280 327.687 276.418 324.105 272 324.105C267.582 324.105 264 327.687 264 332.105C264 336.523 267.582 340.105 272 340.105Z" fill="#936108"/>
<path d="M408 112.84C401.637 112.833 395.537 110.302 391.037 105.803C386.538 101.303 384.007 95.203 384 88.84V80.84C384 74.4748 386.529 68.3703 391.029 63.8694C395.53 59.3685 401.635 56.84 408 56.84C414.365 56.84 420.47 59.3685 424.971 63.8694C429.471 68.3703 432 74.4748 432 80.84V88.84C431.993 95.203 429.462 101.303 424.963 105.803C420.463 110.302 414.363 112.833 408 112.84V112.84ZM408 72.84C405.879 72.8423 403.846 73.686 402.346 75.1857C400.846 76.6855 400.002 78.719 400 80.84V88.84C400 90.9617 400.843 92.9965 402.343 94.4968C403.843 95.9971 405.878 96.84 408 96.84C410.122 96.84 412.157 95.9971 413.657 94.4968C415.157 92.9965 416 90.9617 416 88.84V80.84C415.998 78.719 415.154 76.6855 413.654 75.1857C412.154 73.686 410.121 72.8423 408 72.84Z" fill="#5EBEF7"/>
<path d="M464 112.84C461.878 112.84 459.843 111.997 458.343 110.497C456.843 108.997 456 106.962 456 104.84V80.84C454.418 80.8401 452.871 80.3709 451.555 79.4919C450.239 78.6128 449.214 77.3634 448.609 75.9015C448.003 74.4397 447.845 72.8311 448.153 71.2792C448.462 69.7273 449.224 68.3018 450.343 67.183L458.343 59.183C459.462 58.0641 460.887 57.3022 462.439 56.9935C463.991 56.6848 465.599 56.8432 467.061 57.4487C468.523 58.0542 469.773 59.0797 470.652 60.3953C471.531 61.7109 472 63.2577 472 64.84V104.84C472 106.962 471.157 108.997 469.657 110.497C468.156 111.997 466.122 112.84 464 112.84Z" fill="#92D1F7"/>
<path d="M408 256.84C401.637 256.833 395.537 254.302 391.037 249.803C386.538 245.303 384.007 239.203 384 232.84V224.84C384 218.475 386.529 212.37 391.029 207.869C395.53 203.369 401.635 200.84 408 200.84C414.365 200.84 420.47 203.369 424.971 207.869C429.471 212.37 432 218.475 432 224.84V232.84C431.993 239.203 429.462 245.303 424.963 249.803C420.463 254.302 414.363 256.833 408 256.84V256.84ZM408 216.84C405.879 216.842 403.846 217.686 402.346 219.186C400.846 220.686 400.002 222.719 400 224.84V232.84C400 234.962 400.843 236.997 402.343 238.497C403.843 239.997 405.878 240.84 408 240.84C410.122 240.84 412.157 239.997 413.657 238.497C415.157 236.997 416 234.962 416 232.84V224.84C415.998 222.719 415.154 220.686 413.654 219.186C412.154 217.686 410.121 216.842 408 216.84V216.84Z" fill="#5EBEF7"/>
<path d="M464 256.84C461.878 256.84 459.843 255.997 458.343 254.497C456.843 252.997 456 250.962 456 248.84V224.84C454.418 224.84 452.871 224.371 451.555 223.492C450.239 222.613 449.214 221.363 448.609 219.902C448.003 218.44 447.845 216.831 448.153 215.279C448.462 213.727 449.224 212.302 450.343 211.183L458.343 203.183C459.462 202.064 460.887 201.302 462.439 200.993C463.991 200.685 465.599 200.843 467.061 201.449C468.523 202.054 469.773 203.08 470.652 204.395C471.531 205.711 472 207.258 472 208.84V248.84C472 250.962 471.157 252.997 469.657 254.497C468.156 255.997 466.122 256.84 464 256.84Z" fill="#92D1F7"/>
<path d="M464 184.84C457.637 184.833 451.537 182.302 447.037 177.803C442.538 173.303 440.007 167.203 440 160.84V152.84C440 146.475 442.529 140.37 447.029 135.869C451.53 131.369 457.635 128.84 464 128.84C470.365 128.84 476.47 131.369 480.971 135.869C485.471 140.37 488 146.475 488 152.84V160.84C487.993 167.203 485.462 173.303 480.963 177.803C476.463 182.302 470.363 184.833 464 184.84ZM464 144.84C461.879 144.842 459.846 145.686 458.346 147.186C456.846 148.686 456.002 150.719 456 152.84V160.84C456 162.962 456.843 164.997 458.343 166.497C459.843 167.997 461.878 168.84 464 168.84C466.122 168.84 468.157 167.997 469.657 166.497C471.157 164.997 472 162.962 472 160.84V152.84C471.998 150.719 471.154 148.686 469.654 147.186C468.154 145.686 466.121 144.842 464 144.84Z" fill="#5EBEF7"/>
<path d="M408 184.84C405.878 184.84 403.843 183.997 402.343 182.497C400.843 180.997 400 178.962 400 176.84V152.84C398.418 152.84 396.871 152.371 395.555 151.492C394.239 150.613 393.214 149.363 392.609 147.902C392.003 146.44 391.845 144.831 392.153 143.279C392.462 141.727 393.224 140.302 394.343 139.183L402.343 131.183C403.462 130.064 404.887 129.302 406.439 128.993C407.991 128.685 409.599 128.843 411.061 129.449C412.523 130.054 413.773 131.08 414.652 132.395C415.531 133.711 416 135.258 416 136.84V176.84C416 178.962 415.157 180.997 413.657 182.497C412.156 183.997 410.122 184.84 408 184.84Z" fill="#92D1F7"/>
<path d="M48 112.84C41.637 112.833 35.5367 110.302 31.0373 105.803C26.538 101.303 24.0071 95.203 24 88.84V80.84C24 74.4748 26.5286 68.3703 31.0294 63.8694C35.5303 59.3685 41.6348 56.84 48 56.84C54.3652 56.84 60.4697 59.3685 64.9706 63.8694C69.4714 68.3703 72 74.4748 72 80.84V88.84C71.9929 95.203 69.462 101.303 64.9627 105.803C60.4633 110.302 54.363 112.833 48 112.84ZM48 72.84C45.879 72.8423 43.8456 73.686 42.3458 75.1857C40.846 76.6855 40.0024 78.719 40 80.84V88.84C40 90.9617 40.8429 92.9965 42.3431 94.4968C43.8434 95.9971 45.8783 96.84 48 96.84C50.1217 96.84 52.1566 95.9971 53.6569 94.4968C55.1571 92.9965 56 90.9617 56 88.84V80.84C55.9976 78.719 55.154 76.6855 53.6542 75.1857C52.1544 73.686 50.121 72.8423 48 72.84V72.84Z" fill="#5EBEF7"/>
<path d="M104 112.84C101.878 112.84 99.8432 111.997 98.343 110.497C96.8427 108.997 95.9998 106.962 95.9998 104.84V80.84C94.4175 80.8401 92.8707 80.3709 91.5551 79.4919C90.2394 78.6128 89.214 77.3634 88.6085 75.9015C88.003 74.4397 87.8445 72.8311 88.1532 71.2792C88.462 69.7273 89.2239 68.3018 90.3428 67.183L98.3428 59.183C99.4616 58.0641 100.887 57.3022 102.439 56.9935C103.991 56.6848 105.599 56.8432 107.061 57.4487C108.523 58.0542 109.773 59.0797 110.652 60.3953C111.531 61.7109 112 63.2577 112 64.84V104.84C112 106.962 111.157 108.997 109.657 110.497C108.156 111.997 106.122 112.84 104 112.84Z" fill="#92D1F7"/>
<path d="M104 184.84C97.637 184.833 91.5367 182.302 87.0373 177.803C82.538 173.303 80.0071 167.203 80 160.84V152.84C80 146.475 82.5286 140.37 87.0294 135.869C91.5303 131.369 97.6348 128.84 104 128.84C110.365 128.84 116.47 131.369 120.971 135.869C125.471 140.37 128 146.475 128 152.84V160.84C127.993 167.203 125.462 173.303 120.963 177.803C116.463 182.302 110.363 184.833 104 184.84ZM104 144.84C101.879 144.842 99.8456 145.686 98.3458 147.186C96.846 148.686 96.0024 150.719 96 152.84V160.84C96 162.962 96.8429 164.997 98.3431 166.497C99.8434 167.997 101.878 168.84 104 168.84C106.122 168.84 108.157 167.997 109.657 166.497C111.157 164.997 112 162.962 112 160.84V152.84C111.998 150.719 111.154 148.686 109.654 147.186C108.154 145.686 106.121 144.842 104 144.84Z" fill="#5EBEF7"/>
<path d="M104 256.84C97.637 256.833 91.5367 254.302 87.0373 249.803C82.538 245.303 80.0071 239.203 80 232.84V224.84C80 218.475 82.5286 212.37 87.0294 207.869C91.5303 203.369 97.6348 200.84 104 200.84C110.365 200.84 116.47 203.369 120.971 207.869C125.471 212.37 128 218.475 128 224.84V232.84C127.993 239.203 125.462 245.303 120.963 249.803C116.463 254.302 110.363 256.833 104 256.84ZM104 216.84C101.879 216.842 99.8456 217.686 98.3458 219.186C96.846 220.686 96.0024 222.719 96 224.84V232.84C96 234.962 96.8429 236.997 98.3431 238.497C99.8434 239.997 101.878 240.84 104 240.84C106.122 240.84 108.157 239.997 109.657 238.497C111.157 236.997 112 234.962 112 232.84V224.84C111.998 222.719 111.154 220.686 109.654 219.186C108.154 217.686 106.121 216.842 104 216.84V216.84Z" fill="#5EBEF7"/>
<path d="M47.9998 184.84C45.8781 184.84 43.8432 183.997 42.343 182.497C40.8427 180.997 39.9998 178.962 39.9998 176.84V152.84C38.4175 152.84 36.8707 152.371 35.5551 151.492C34.2394 150.613 33.214 149.363 32.6085 147.902C32.003 146.44 31.8445 144.831 32.1532 143.279C32.462 141.727 33.2239 140.302 34.3428 139.183L42.3428 131.183C43.4616 130.064 44.8871 129.302 46.439 128.993C47.9909 128.685 49.5995 128.843 51.0613 129.449C52.5232 130.054 53.7726 131.08 54.6517 132.395C55.5307 133.711 55.9999 135.258 55.9998 136.84V176.84C55.9998 178.962 55.157 180.997 53.6567 182.497C52.1564 183.997 50.1215 184.84 47.9998 184.84Z" fill="#92D1F7"/>
<path d="M47.9998 256.84C45.8781 256.84 43.8432 255.997 42.343 254.497C40.8427 252.997 39.9998 250.962 39.9998 248.84V224.84C38.4175 224.84 36.8707 224.371 35.5551 223.492C34.2394 222.613 33.214 221.363 32.6085 219.902C32.003 218.44 31.8445 216.831 32.1532 215.279C32.462 213.727 33.2239 212.302 34.3428 211.183L42.3428 203.183C43.4616 202.064 44.8871 201.302 46.439 200.993C47.9909 200.685 49.5995 200.843 51.0613 201.449C52.5232 202.054 53.7726 203.08 54.6517 204.395C55.5307 205.711 55.9999 207.258 55.9998 208.84V248.84C55.9998 250.962 55.157 252.997 53.6567 254.497C52.1564 255.997 50.1215 256.84 47.9998 256.84Z" fill="#92D1F7"/>
<path d="M376 416H135V436H376V416Z" fill="#AEADAA"/>
<path d="M112 432H400V444C400 449.304 397.893 454.391 394.142 458.142C390.391 461.893 385.304 464 380 464H132C126.696 464 121.609 461.893 117.858 458.142C114.107 454.391 112 449.304 112 444V432Z" fill="#EAE9E4"/>
<path d="M360 200.84V152.84C360 126.589 350.073 101.309 332.211 82.073V82.073C322.477 71.59 310.684 63.2281 297.571 57.5099C284.458 51.7918 270.307 48.8405 256.001 48.8405C241.695 48.8405 227.544 51.7918 214.431 57.5099C201.318 63.2281 189.525 71.59 179.791 82.073C161.928 101.309 152 126.589 152 152.84V200.84L256 120L360 200.84Z" fill="#9CB26D"/>
</svg>
